<svg width="44" height="44" viewBox="0 0 44 44" fill="none" xmlns="http://www.w3.org/2000/svg">
<path fill-rule="evenodd" clip-rule="evenodd" d="M26.9683 25.6667H28.4167L37.565 34.8333L34.8333 37.565L25.6667 28.4167V26.9683L25.1717 26.455C23.0817 28.2517 20.3683 29.3333 17.4167 29.3333C10.835 29.3333 5.5 23.9983 5.5 17.4167C5.5 10.835 10.835 5.5 17.4167 5.5C23.9983 5.5 29.3333 10.835 29.3333 17.4167C29.3333 20.3683 28.2517 23.0817 26.455 25.1717L26.9683 25.6667ZM9.16667 17.4167C9.16667 21.9817 12.8517 25.6667 17.4167 25.6667C21.9817 25.6667 25.6667 21.9817 25.6667 17.4167C25.6667 12.8517 21.9817 9.16667 17.4167 9.16667C12.8517 9.16667 9.16667 12.8517 9.16667 17.4167Z" fill="black"/>
</svg>
