<?xml version="1.0" encoding="UTF-8"?><svg id="_레이어_1" xmlns="http://www.w3.org/2000/svg" viewBox="0 0 180 65"><defs><style>.cls-1{stroke-width:0px;}</style></defs><rect class="cls-1" x="106.19" y="6.46" width="6.36" height="14.03"/><rect class="cls-1" x="164.88" y="6.46" width="6.11" height="14.03"/><rect class="cls-1" x="173.89" y="6.46" width="6.11" height="14.03"/><path class="cls-1" d="m49.77,5.32c-4.5,0-8.15,3.66-8.15,8.15s3.66,8.15,8.15,8.15,8.15-3.66,8.15-8.15-3.65-8.15-8.15-8.15Zm3.06,8.15c0,1.69-1.37,3.06-3.06,3.06s-3.06-1.37-3.06-3.06,1.37-3.06,3.06-3.06,3.06,1.37,3.06,3.06Z"/><path class="cls-1" d="m0,63.1V18.26h8.58l18.7,28.51c.08.13.36.6.83,1.41.47.77.83,1.47,1.09,2.11V18.26h8.2v44.84h-8.58l-18.7-28.7c-.09-.13-.36-.6-.83-1.41-.56-.94-.92-1.64-1.09-2.11v32.22s-8.2,0-8.2,0Z"/><path class="cls-1" d="m45.67,51.06v-19.73h8.07v17.87c0,4.83,2.16,7.24,6.47,7.24,2.26,0,4.06-.8,5.38-2.4,1.32-1.6,1.99-3.7,1.99-6.31v-16.4h8.07v31.77h-8.07v-5c-2.09,3.93-5.47,5.89-10.12,5.89-3.46,0-6.29-1.13-8.49-3.4-2.2-2.26-3.3-5.44-3.3-9.54h0Z"/><path class="cls-1" d="m91.35,18.26v22.68l9.67-9.61h9.99l-11.59,11.34,13.13,20.43h-9.29l-9.48-14.86-2.43,2.37v12.49h-8.07V18.26h8.07Z"/><path class="cls-1" d="m145.6,63.1h-8.2c-1.02-1.41-1.54-3.1-1.54-5.06-2.22,3.97-5.77,5.96-10.63,5.96-3.16,0-5.73-.91-7.72-2.72s-2.98-4.22-2.98-7.21,1.07-5.42,3.2-7.17,4.85-2.86,8.14-3.33l9.54-1.47v-1.22c0-3.2-1.94-4.8-5.83-4.8-1.84,0-3.25.34-4.23,1.02s-1.47,1.54-1.47,2.56c0,.3.04.56.13.77l-7.24,2.43c-.38-.85-.58-1.75-.58-2.69,0-2.6,1.22-4.88,3.65-6.82,2.43-1.94,5.68-2.91,9.74-2.91,9.27,0,13.9,3.84,13.9,11.53v13.26c0,3.2.7,5.83,2.11,7.88h.01Zm-18.45-5.64c2.43,0,4.42-.8,5.96-2.4,1.54-1.6,2.31-3.88,2.31-6.82v-.58l-7.69,1.28c-3.55.6-5.32,2.16-5.32,4.68,0,1.24.43,2.19,1.28,2.85s2.01.99,3.46.99Z"/><path class="cls-1" d="m158.8,18.26v22.68l9.67-9.61h9.99l-11.59,11.34,13.13,20.43h-9.29l-9.48-14.86-2.43,2.37v12.49h-8.07V18.26h8.07,0Z"/></svg>