<svg width="48" height="48" viewBox="0 0 48 48" fill="none" xmlns="http://www.w3.org/2000/svg">
<path fill-rule="evenodd" clip-rule="evenodd" d="M24 8C19.58 8 16 11.58 16 16C16 20.42 19.58 24 24 24C28.42 24 32 20.42 32 16C32 11.58 28.42 8 24 8ZM28.2 16C28.2 13.68 26.32 11.8 24 11.8C21.68 11.8 19.8 13.68 19.8 16C19.8 18.32 21.68 20.2 24 20.2C26.32 20.2 28.2 18.32 28.2 16ZM36.2 34C36.2 32.72 29.94 29.8 24 29.8C18.06 29.8 11.8 32.72 11.8 34V36.2H36.2V34ZM8 34C8 28.68 18.66 26 24 26C29.34 26 40 28.68 40 34V40H8V34Z" fill="black"/>
</svg>
